<?xml version="1.0" encoding="UTF-8"?>
<svg id="Layer_2" data-name="Layer 2" xmlns="http://www.w3.org/2000/svg" viewBox="0 0 181.12 125.31">
  <defs>
    <style>
      .cls-1, .cls-2 {
        fill: #231f20;
      }

      .cls-1, .cls-3 {
        stroke: #231f20;
        stroke-linecap: round;
        stroke-linejoin: round;
      }

      .cls-2 {
        stroke-width: 0px;
      }

      .cls-3 {
        fill: none;
        stroke-width: 4px;
      }
    </style>
  </defs>
  <g id="Layer_1-2" data-name="Layer 1">
    <path class="cls-2" d="m8.88,103.28c1.64-2.97,2.01-6.4,2.37-9.75,1.63-17.56-2.83-34.63-4.84-52.14-.99-9.61-1.84-20.08,3.09-29.1C14.89,2.33,27.13-.74,37.65.15c8.77.63,18.89,1.82,25.81,7.96,9.14,8.18,10.08,23.02,3.67,33.1-4.44,7.29-12.44,12.47-20.96,13.22-7.16.77-14.06-.04-20.79,1.5-.13.05-.25.1-.37.14.26-.16.47-.4.68-.71.47-.65.6-1.91.29-2.61,0,0,1.03,1.7,1.03,1.7,9.94,14.72,21.22,29.2,32.26,43.16,0,0,.78.93.78.93,0,0,.2.23.2.23-.54-.58-1.8-.82-2.54-.33,2.47-3.34,3.61-8.36,4.85-12.82,2.95-11.64,5.76-29.37,7.96-41.43,1-5.33,1.98-10.68,3.46-15.98,1.18-4.44,3.83-11.54,9.98-8.85,1.03.51,2.07,1.62,2.56,2.5,1.32,2.22,2.17,4.57,3.05,6.78,8.69,23.15,14.73,47.26,24.29,69.95.45.92.9,1.88,1.41,2.55,0,0,.01-.02-.37-.29-1.36-.96-3.6-.46-4.41.64,1.76-4.09,2.45-8.61,3.35-13.11,2.43-13.69,3.75-27.73,4.57-41.74.19-3.51.35-7.02.47-10.53.42-6.42-.24-17.69,7.52-20.5,1.5-.48,2.93-.4,4.39-.1,19.17,3.11,34.69,17.97,40.36,36.26,7.26,20.86,1.93,51.98-22.82,57.73-7.65,1.72-15.57.57-22.81-1.88-1.83-.61-2.82-2.6-2.21-4.43.61-1.84,2.6-2.83,4.44-2.21,41.92,14.06,48.93-39.78,26.85-64.08-6.6-7.67-16.03-12.75-25.97-14.18-.64.62-1.1,2.04-1.42,3.66-.58,3-.66,6.41-.75,9.95-.54,17.9-1.82,35.64-4.83,53.42-.83,4.5-1.66,9.15-3.25,13.62-.33.83-.71,1.83-1.29,2.64-1.38,2.22-4.33,3.04-6.54,1.52-2.09-1.5-2.88-3.51-3.92-5.51-8.53-19.69-14.24-40.43-21.39-60.51-1.85-5.08-3.5-10.47-5.94-15.17-.05-.09-.1-.14-.01-.03l.12.13c.72.73,1.83.99,2.85.77.67-.11,1.18-.52,1.29-.59.37-.36.21-.21.15-.1-2.54,5.98-3.32,12.75-4.61,19.17,0,0-3.58,20.93-3.58,20.93-1.23,7.02-2.51,14.05-4.25,21.13-1.91,6.94-5.22,22.97-15.66,18.7-1.66-.79-2.98-2.76-4.18-4.15-11.05-13.88-22.31-28.12-32.31-42.79-.16-.31-.99-1.55-1.16-1.88-2.65-4.05-.71-8.75,3.5-10.37.48-.19,1.37-.51,1.86-.63,7.26-1.75,14.84-1.05,21.9-1.8,11.6-1,19.62-14,14.96-24.68-.76-1.85-1.81-3.39-3.26-4.65-5.75-4.95-14.52-4.35-21.92-4.14-7.74.22-15.37,1.66-17.83,10.02-1.86,5.9-1.77,12.84-1.48,19.23.77,14.07,2.89,28.38,2.51,42.69-.11,3.65-.38,7.31-.95,10.97-.5,3.68-1.61,7.2-2.08,11-.21,1.85-1.89,3.17-3.74,2.94-2.3-.24-3.67-2.94-2.51-4.94h0Z"/>
    <circle class="cls-1" cx="170.51" cy="106.82" r="3.78"/>
    <path class="cls-3" d="m2,120.07c26.79-3.62,58.46-6.01,93.96-5.04,31.13.85,59.07,4.12,83.16,8.28"/>
  </g>
</svg>